<mxfile host="app.diagrams.net" modified="2024-03-26T14:53:16.613Z" agent="Mozilla/5.0 (Macintosh; Intel Mac OS X 10_15_7) AppleWebKit/537.36 (KHTML, like Gecko) Chrome/122.0.0.0 Safari/537.36" etag="NQrCe5eVc4SfMnfPQaQT" version="24.1.0" type="github">
  <diagram name="Page-1" id="mNy4JjWyKzZCUvFRvfHq">
    <mxGraphModel dx="1020" dy="1373" grid="1" gridSize="10" guides="1" tooltips="1" connect="1" arrows="1" fold="1" page="1" pageScale="1" pageWidth="850" pageHeight="1100" math="0" shadow="0">
      <root>
        <mxCell id="0" />
        <mxCell id="1" parent="0" />
        <mxCell id="05li4m3X1VEegUcsMrDj-1" value="Metric Initialize" style="rounded=0;whiteSpace=wrap;html=1;" vertex="1" parent="1">
          <mxGeometry x="80" y="270" width="120" height="60" as="geometry" />
        </mxCell>
      </root>
    </mxGraphModel>
  </diagram>
</mxfile>
